<?xml version="1.0" encoding="UTF-8" standalone="no"?>
<!-- Created with Inkscape (http://www.inkscape.org/) -->

<svg
   version="1.1"
   id="svg1"
   width="1024"
   height="1024"
   viewBox="0 0 1024 1024"
   xmlns="http://www.w3.org/2000/svg"
   xmlns:svg="http://www.w3.org/2000/svg">
  <defs
     id="defs1" />
  <g
     id="g1">
    <path
       style="fill:currentColor"
       d="m 538.26363,500.42485 c 2.4737,-4.73398 9.01028,-10.07571 16.4665,-13.45652 C 564.23344,482.65932 570,476.65453 570,471.06762 c 0,-1.93994 -0.44015,-1.87238 -9.74495,1.49583 -5.35972,1.94014 -10.87222,4.24031 -12.25,5.11149 -9.57405,6.05376 -13.13283,13.41318 -15.96578,33.01661 -1.52353,10.54251 -1.26462,10.7279 1.82733,1.30845 1.53458,-4.675 3.51324,-9.88382 4.39703,-11.57515 z"
       id="path27" />
    <path
       style="fill:currentColor"
       d="m 528.49525,523.25 c 1.99197,-28.48181 6.40436,-40.68569 17.10486,-47.30897 4.19122,-2.59424 21.90163,-8.94103 24.9495,-8.94103 2.01181,0 2.44646,0.49221 2.42843,2.75 -0.0335,4.18783 -3.30367,10.50477 -7.08574,13.68719 -1.86577,1.56995 -6.60939,4.40296 -10.54139,6.29558 -12.56368,6.04737 -15.75247,10.71058 -21.57944,31.55726 -2.09643,7.50023 -3.75396,11.70513 -4.61479,11.70702 -1.0793,0.002 -1.2093,-1.91337 -0.66143,-9.74705 z"
       id="path26" />
    <path
       style="fill:currentColor"
       d="M 492.04083,506.38108 C 489.48271,487.15795 484.64381,480.74926 467.67939,474.11651 457.24547,470.03704 454,469.2512 454,470.80422 c 0,1.80178 5.95525,10.0269 8.6311,11.92089 1.57789,1.11685 5.94975,3.52828 9.71523,5.35875 10.44132,5.07569 16.8892,13.84381 19.39538,26.37467 1.20041,6.00206 1.41209,0.28599 0.29912,-8.07745 z"
       id="path25" />
    <path
       style="fill:currentColor"
       d="m 493.64685,531.91722 c -0.23029,-0.77947 -1.58949,-5.97945 -3.02044,-11.55552 -4.81986,-18.78184 -8.46554,-24.2494 -20.04232,-30.05819 -3.89625,-1.95499 -8.3751,-4.46679 -9.95299,-5.58178 C 453.9339,479.98929 449.03722,467 453.95039,467 c 3.58875,0 21.48843,7.03402 26.74041,10.50815 8.4639,5.59879 12.19143,14.07452 14.28955,32.49185 1.50128,13.1782 1.58058,20.83907 0.22971,22.18994 -0.85933,0.85933 -1.24882,0.79137 -1.56321,-0.27272 z"
       id="path24" />
    <path
       style="fill:currentColor"
       d="m 530.91617,577.5 c 0,-1.47813 -0.5,-1.08672 -1.91617,1.5 -1.05389,1.925 -1.91617,4.4 -1.91617,5.5 0,1.47813 0.5,1.08672 1.91617,-1.5 1.05389,-1.925 1.91617,-4.4 1.91617,-5.5 z"
       id="path23" />
    <path
       style="fill:currentColor"
       d="m 525.66667,588.33333 c -2.35885,-2.35884 1.46928,-14.6808 4.97943,-16.02777 3.7122,-1.4245 3.73571,6.19803 0.0399,12.94444 -1.95569,3.56997 -3.55208,4.55062 -5.01936,3.08333 z"
       id="path22" />
    <path
       style="fill:currentColor"
       d="M 495.93587,581.7299 C 494.98105,578.27184 493,575.69228 493,577.90706 c 0,1.26704 3.24714,8.17913 3.65212,7.77415 0.16152,-0.16152 -0.16079,-1.9396 -0.71625,-3.95131 z"
       id="path21" />
    <path
       style="fill:currentColor"
       d="M 495.22204,587.73635 C 490.81198,583.04205 488.13788,572 491.41111,572 494.79386,572 500,582.33436 500,589.04922 c 0,1.7135 -2.60808,0.99686 -4.77796,-1.31287 z"
       id="path20" />
    <path
       style="fill:currentColor"
       d="m 525.08719,617.25 c 17.01172,-17.29741 21.9581,-23.13464 24.73902,-29.19454 2.27022,-4.94702 2.51828,-6.82027 2.71464,-20.5 0.41514,-28.92159 4.06116,-37.83109 25.01019,-61.1155 11.63264,-12.92944 13.15909,-15.5093 14.5047,-24.51444 2.47126,-16.53823 3.32886,-19.31703 10.04927,-32.56174 6.27444,-12.36579 8.59592,-19.53153 7.74093,-23.89407 -0.30794,-1.57122 -0.6755,-1.48844 -3.34594,0.75354 C 599.02141,432.50192 587.57985,440 585.47761,440 c -3.65504,0 -5.85354,-6.96393 -5.28266,-16.73324 1.1382,-19.47762 14.18008,-34.20546 50.96949,-57.55842 33.3106,-21.14471 48.84926,-45.26163 49.10142,-76.20834 0.0702,-8.61245 -0.40988,-12.80199 -2.21175,-19.30221 -1.26576,-4.56621 -2.84039,-8.84121 -3.49918,-9.5 -0.65878,-0.65878 -1.28353,-1.64779 -1.38832,-2.19779 -0.54665,-2.86911 -1.4167,-4.5 -2.40066,-4.5 -0.60461,0 -0.80863,-0.29065 -0.45339,-0.64589 1.73609,-1.73609 -14.37238,-19.20204 -22.98635,-24.92343 -5.49277,-3.64829 -14.31435,-7.77587 -15.0489,-7.04132 -0.24179,0.24179 1.59086,2.9325 4.07255,5.97935 19.28444,23.67609 18.92493,49.51541 -0.98267,70.62832 -7.25244,7.69154 -16.19907,14.10908 -35.86719,25.72805 -23.17308,13.68952 -35.59875,23.96835 -46.56119,38.51662 -10.4444,13.86075 -16.47958,29.44707 -19.99409,51.63622 -0.77982,4.9235 -1.45892,6.91952 -2.04133,6 -0.72316,-1.14172 -0.88727,-1.12079 -0.95736,0.12208 -0.0465,0.825 -1.3166,-2.1 -2.82238,-6.5 -3.05001,-8.91233 -6.41049,-15.0301 -11.53527,-21 l -3.43375,-4 -4.04194,3.91841 c -4.49987,4.36234 -10.15044,14.56418 -12.10629,21.85735 -2.28619,8.52495 -4.19172,7.17791 -5.89381,-4.16638 -3.88076,-25.8649 -13.80315,-45.12229 -32.28787,-62.66434 -8.99336,-8.53474 -16.32096,-13.69466 -38.60864,-27.18733 -27.58176,-16.69764 -34.98784,-23.18219 -41.68152,-36.49513 -9.96161,-19.81248 -6.32299,-38.68731 11.58466,-60.09373 l 3.20497,-3.83114 -3.87705,1.61993 c -2.13238,0.89096 -4.11782,1.93998 -4.41209,2.33115 -0.29428,0.39116 -1.20143,0.85834 -2.01589,1.03816 -5.45205,1.20373 -24.31624,18.79762 -25.65033,23.92305 -0.32211,1.2375 -0.9159,2.25 -1.31954,2.25 -0.40365,0 -2.38735,3.52343 -4.40822,7.82985 -13.98125,29.79355 -5.75721,66.28426 20.39584,90.49799 6.62667,6.13527 13.21011,10.75975 37.1822,26.11828 12.6255,8.08895 27.38644,22.81606 31.62636,31.55388 4.17918,8.61263 5.60256,16.52488 4.19366,23.31153 -1.40736,6.77922 -4.8177,11.21091 -7.8794,10.23917 -1.85987,-0.5903 -12.27927,-8.28664 -19.55645,-14.44547 -1.83795,-1.5555 -1.87843,-1.41934 -1.30647,4.39477 0.45304,4.60536 1.99101,8.79835 6.61664,18.03904 7.64988,15.28228 8.81024,18.64573 10.10202,29.28199 1.40878,11.59955 4.04591,16.6102 15.09077,28.673 19.959,21.79849 23.5046,30.17045 24.77784,58.50597 0.91601,20.38577 1.82653,23.29961 10.59376,33.90229 8.87144,10.72872 27.89976,30.12671 29.53779,30.11165 0.8336,-0.008 6.7158,-5.30144 13.07156,-11.76394 z"
       id="path19" />
    <path
       style="fill:currentColor"
       d="m 500.23595,622.25 c -15.67623,-16.06274 -24.38262,-26.43284 -27.076,-32.25 -2.27597,-4.91563 -2.62688,-7.30622 -3.30271,-22.5 -1.27587,-28.68364 -4.91313,-37.43181 -24.43927,-58.7802 -11.97224,-13.08952 -14.2212,-17.19738 -15.47992,-28.27498 -1.20156,-10.57448 -3.88262,-18.89307 -8.84542,-27.44482 -5.23557,-9.02178 -7.22358,-14.43555 -8.07869,-22 -0.68838,-6.08949 -0.0401,-9 2.00456,-9 0.42549,0 5.38678,3.61537 11.02508,8.03416 5.63831,4.41878 10.74759,7.87949 11.35395,7.69045 2.13397,-0.66529 4.59937,-7.25254 4.60092,-12.29311 0.004,-14.63488 -9.57785,-28.8599 -29.39034,-43.6301 -4.34054,-3.23587 -9.96554,-7.07783 -12.5,-8.53768 -9.64451,-5.55527 -24.84965,-16.25823 -30.79027,-21.6734 C 353.36523,337.04873 343.9077,317.97125 341.51145,295.5 c -0.7496,-7.02944 0.86772,-21.86894 3.16062,-29 7.02904,-21.86066 23.76412,-39.9411 44.48548,-48.06174 11.24403,-4.40651 11.44186,-3.3278 1.47949,8.0674 -15.38848,17.60172 -19.69926,34.6121 -13.04971,51.49434 5.67735,14.41397 15.75676,23.80742 42.41267,39.52626 47.12389,27.78869 63.92748,48.19164 71.58225,86.91533 1.49081,7.54165 1.91077,8.55933 2.68236,6.5 C 498.75128,398.96699 507.99141,386 512.03773,386 c 3.6815,0 12.10057,12.40396 17.64726,26 0.91721,2.24826 1.09235,1.92112 1.73927,-3.24879 0.98811,-7.89663 5.16241,-23.15214 8.08312,-29.54083 3.77374,-8.25459 12.5776,-21.15905 19.44088,-28.49592 8.56607,-9.15715 21.41096,-18.68185 41.55174,-30.81131 9.35,-5.63088 19.34387,-11.96307 22.20861,-14.07152 14.87666,-10.94929 24.18589,-25.5073 25.0644,-39.19635 1.00045,-15.58913 -5.15576,-29.80689 -18.67735,-43.13528 -4.97522,-4.90413 -6.32904,-7.53273 -3.84566,-7.46683 3.02094,0.0802 18.75665,6.85132 23.95476,10.30784 9.24753,6.14919 20.74594,19.06977 25.59928,28.7655 6.16745,12.32097 7.65901,19.02538 7.65169,34.39349 -0.007,14.87467 -1.62953,22.71639 -7.07961,34.21773 -7.62034,16.08122 -20.47813,29.633 -40.51643,42.70326 -27.40724,17.87675 -37.85567,26.5598 -45.19341,37.55751 -7.17117,10.74803 -9.37682,23.00534 -5.61985,31.23072 1.49323,3.26924 1.06286,3.46119 14.83106,-6.61472 5.70762,-4.17697 11.04277,-7.5945 11.85589,-7.5945 1.20995,0 1.41329,1.43345 1.11988,7.89454 -0.33709,7.42284 -0.75792,8.69251 -7.04332,21.25 -7.89079,15.76489 -8.63867,18.00294 -9.81015,29.35746 -1.1648,11.2898 -3.28741,15.43316 -13.69646,26.7356 -22.04191,23.93373 -25.07293,30.96072 -26.20925,60.7624 -0.66227,17.36918 -0.86838,18.81552 -3.37189,23.6618 C 546.90922,599.97875 516.11877,632 511.9729,632 c -1.49288,0 -5.34262,-3.19801 -11.73695,-9.75 z"
       id="path18" />
    <path
       style="fill:currentColor"
       d="m 463,715.62244 c 0,-0.20765 -0.7875,-0.99515 -1.75,-1.75 -1.58606,-1.24387 -1.62143,-1.2085 -0.37756,0.37756 1.30637,1.66575 2.12756,2.19548 2.12756,1.37244 z"
       id="path13" />
    <path
       style="fill:currentColor"
       d="m 746.40499,512.8538 c -2.47046,-2.78326 -10.92539,-8.22171 -15.956,-10.26334 L 726.5,500.9878 729,503.00247 C 731.6216,505.11513 747.19415,515 747.90082,515 c 0.22504,0 -0.44809,-0.96579 -1.49583,-2.1462 z"
       id="path12" />
    <path
       style="fill:currentColor"
       d="m 744.33966,516.11828 c -12.8373,-7.07866 -24.6109,-16.18037 -23.00614,-17.78513 1.34351,-1.34351 11.31252,1.82938 17.66648,5.6228 7.88443,4.70714 14.51918,11.2487 13.66545,13.4735 -0.84405,2.19954 -2.40482,1.95374 -8.32579,-1.31117 z"
       id="path11" />
    <path
       style="fill:currentColor"
       d="m 289.32707,506.74864 c 6.45317,-4.34987 7.0101,-5.98162 0.99405,-2.91246 C 286.25388,505.91113 274,514.8033 274,515.67979 c 0,0.6698 7.99582,-3.9894 15.32707,-8.93115 z"
       id="path10" />
    <path
       style="fill:currentColor"
       d="m 270.62955,517.477 c -0.72706,-1.89467 5.46187,-8.06188 12.65931,-12.61487 2.86613,-1.81308 5.48645,-3.6872 5.82294,-4.16472 0.3365,-0.47753 0.90442,-0.81014 1.26206,-0.73915 0.35764,0.071 2.33233,-0.33806 4.3882,-0.90901 4.90606,-1.3625 8.23794,-1.3259 8.23794,0.0905 0,1.41599 -1.17636,2.3409 -13,10.22119 -14.70489,9.8006 -18.16733,11.25133 -19.37045,8.11605 z"
       id="path9" />
    <path
       style="fill:currentColor"
       d="m 788,560.44098 c 0,-0.85746 -0.45,-1.2809 -1,-0.94098 -0.55,0.33992 -1,1.04148 -1,1.55902 0,0.51754 0.45,0.94098 1,0.94098 0.55,0 1,-0.70156 1,-1.55902 z"
       id="path8" />
    <path
       style="fill:currentColor"
       d="m 785.25,564.33772 c -1.84454,-0.74429 -1.58368,-6.9957 0.32244,-7.72715 4.36041,-1.67324 7.60361,5.15448 3.4933,7.35425 -1.06384,0.56935 -2.07634,0.99965 -2.25,0.95623 -0.17366,-0.0434 -0.87824,-0.30592 -1.56574,-0.58333 z"
       id="path7" />
    <path
       style="fill:currentColor"
       d="m 238.32354,560.40076 c -0.38476,-1.00267 -0.92908,-1.19522 -1.56919,-0.55511 -1.14518,1.14518 -0.0365,3.44675 1.27107,2.63864 0.48798,-0.30159 0.62213,-1.23918 0.29812,-2.08353 z"
       id="path6" />
    <path
       style="fill:currentColor"
       d="m 234.24298,563.84298 c -2.89869,-2.89869 -0.30655,-7.27343 3.95198,-6.66974 1.90542,0.27011 2.30504,0.93354 2.30504,3.82676 0,2.99137 -0.36433,3.54258 -2.50702,3.79298 -1.37887,0.16113 -3.06637,-0.26637 -3.75,-0.95 z"
       id="path5" />
    <path
       style="fill:currentColor"
       d="m 519.9766,818.94514 c 9.58258,-28.27713 19.59795,-42.98464 52.05684,-76.44514 49.67636,-51.20927 66.58061,-78.16555 77.44667,-123.5 1.51601,-6.325 3.58188,-14.8588 4.59081,-18.96399 1.00893,-4.1052 1.68739,-7.61104 1.50768,-7.79075 -0.66413,-0.66413 -12.53478,13.05381 -17.34017,20.03862 -2.73049,3.96887 -8.47019,13.29112 -12.75488,20.71612 -18.84975,32.66499 -36.59829,56.38482 -69.40083,92.75 -6.35326,7.04328 -9.82193,9.18474 -8.84865,5.46292 0.25703,-0.98289 6.46936,-9.87039 13.80518,-19.75 25.10232,-33.80688 39.16081,-56.02038 57.88513,-91.46292 16.65362,-31.52299 27.18235,-44.84808 44.1909,-55.92766 l 8.61528,-5.6121 -2.38594,-3.48012 c -3.37189,-4.91822 -6.29716,-13.23268 -6.99092,-19.8702 -0.53861,-5.15313 -0.34499,-5.96682 2.11561,-8.89108 1.48966,-1.77036 3.28888,-3.21884 3.99826,-3.21884 1.75215,0 3.27729,4.14965 4.54844,12.37556 1.22333,7.91642 3.04594,11.9637 6.36778,14.14025 2.53283,1.65958 16.53028,4.90346 17.40107,4.03266 0.29212,-0.29211 1.08766,-0.0692 1.76787,0.49529 0.68021,0.56453 1.62162,0.93918 2.09201,0.83257 0.47039,-0.10662 1.53026,0.0526 2.35526,0.3539 0.825,0.30126 5.325,1.53751 10,2.74723 10.85483,2.80881 24.43731,8.40028 34,13.99669 7.48082,4.37803 25.06019,20.36784 24.68958,22.45711 -0.23811,1.34232 6.67739,0.88582 7.14583,-0.47172 0.18448,-0.5346 0.72834,-0.72916 1.20859,-0.43235 2.33276,1.44173 25.37419,-13.44233 23.58277,-15.23375 -0.25305,-0.25306 0.4024,-1.32261 1.45656,-2.37677 C 808.48944,572.51056 806.67196,559 802.80765,559 c -0.62754,0 -0.85109,-0.28989 -0.49679,-0.6442 0.35431,-0.35431 -4.58931,-6.07248 -10.98583,-12.70705 -12.4163,-12.87838 -21.73669,-24.08231 -25.79611,-31.00919 -1.37485,-2.34601 -4.48565,-9.30114 -6.91289,-15.45583 -5.90456,-14.97209 -12.03311,-24.48377 -23.41768,-36.34487 -5.2177,-5.4361 -9.64936,-9.72118 -9.84813,-9.52241 -0.19877,0.19877 -2.70595,-1.79405 -5.57151,-4.42849 -2.86556,-2.63445 -5.34502,-4.65499 -5.50992,-4.49009 -0.32191,0.32191 -12.50216,-10.62384 -18.26721,-16.41579 C 691.05441,423.01183 682.25053,413 682.82713,413 c 0.26556,0 -0.2282,-0.7875 -1.09727,-1.75 -0.86906,-0.9625 -3.23138,-4.45 -5.24959,-7.75 l -3.66949,-6 0.51356,6 c 0.28245,3.3 0.75042,7.82097 1.03992,10.0466 0.69078,5.31056 6.55194,21.4534 7.78933,21.4534 0.53044,0 0.68633,0.45 0.34641,1 -0.33992,0.55 -0.11492,1 0.5,1 0.61492,0 0.88434,0.37812 0.59872,0.84027 -0.56223,0.9097 10.4276,18.43993 12.27647,19.58259 1.97595,1.2212 1.23408,3.57714 -1.12641,3.57714 -3.27768,0 -24.45139,-9.9839 -32.44778,-15.29989 -3.77489,-2.50955 -8.94345,-6.39371 -11.48567,-8.63146 C 648.2731,434.83089 645.87587,433 645.48814,433 c -0.38772,0 -0.40974,1.2375 -0.0489,2.75 0.9316,3.90506 5.71572,13.25 6.78332,13.25 0.49252,0 0.61886,0.4476 0.28075,0.99467 -0.3381,0.54707 4.35832,6.05957 10.43651,12.25 6.07818,6.19043 10.92213,11.64871 10.76432,12.12952 -0.1578,0.4808 -3.48037,1.68517 -7.38348,2.67638 -25.20393,6.40061 -51.39229,31.60179 -65.38795,62.92313 -6.08849,13.62562 -8.71537,22.11644 -15.90881,51.42177 -3.25426,13.25749 -7.34589,28.37953 -9.09253,33.60453 -4.63076,13.85273 -16.0884,36.91703 -28.65314,57.67892 -17.75408,29.33674 -27.11259,53.6323 -32.67258,84.82108 -0.84017,4.71291 -1.51164,6.76734 -1.63421,5 l -0.20805,-3 -0.76337,3 -0.76337,3 -0.11832,-3.01276 C 510.91381,767.27915 502.441,734.94666 498.54317,724.5 c -4.70258,-12.60346 -12.7872,-28.05935 -24.06154,-46 -19.05166,-30.31656 -27.40393,-50.29514 -35.99481,-86.09932 -9.98417,-41.61095 -17.22539,-59.35245 -32.31585,-79.17611 -12.5947,-16.54509 -31.58784,-30.28929 -49.53638,-35.84653 -3.22598,-0.99883 -6.09709,-2.41978 -6.38024,-3.15766 -0.2997,-0.78099 3.65397,-5.5995 9.46136,-11.53099 C 365.2026,457.08522 370.85519,450.475 372.277,448 c 3.17999,-5.53551 7.09111,-15.34554 5.79989,-14.54752 -0.52031,0.32157 -5.13797,3.74499 -10.26146,7.60761 C 354.59397,451.02778 328,463.87374 328,460.29254 c 0,-0.5266 2.84058,-5.20594 6.3124,-10.39851 10.00175,-14.959 15.1457,-28.9858 16.25351,-44.32094 l 0.5832,-8.07309 -3.00768,5.28747 C 340.61104,416.02585 328.34159,429.49264 311,443.55345 296.06016,455.66687 288.88213,462.32468 283.02606,469.5 c -6.42543,7.87294 -11.35939,15.36295 -11.35939,17.24415 0,0.69072 -0.33717,1.25585 -0.74927,1.25585 -0.4121,0 -2.81742,5.31645 -5.34517,11.81433 -6.68588,17.18685 -13.68886,26.8824 -36.87843,51.05775 -2.30659,2.40464 -4.07713,4.77966 -3.93452,5.27782 0.1426,0.49816 -0.43907,1.17373 -1.2926,1.50126 -2.65134,1.01741 -5.67769,8.17936 -5.16172,12.21537 0.59419,4.64794 1.62858,7.13347 2.9687,7.13347 0.58282,0 0.75052,0.30915 0.37267,0.68701 -0.73483,0.73482 6.19195,8.31299 7.59843,8.31299 0.46138,0 1.7882,0.88444 2.9485,1.96542 1.16029,1.08098 2.49148,1.72942 2.95818,1.44098 C 235.61815,589.11796 236,589.38508 236,590 c 0,0.61492 0.45,0.83992 1,0.5 0.55,-0.33992 1,-0.17637 1,0.36343 0,0.86866 5.84396,3.42581 8.5,3.71936 0.55,0.0608 1.80691,0.46011 2.79313,0.8874 0.98622,0.42729 1.96114,0.60879 2.16649,0.40335 0.20534,-0.20545 2.69858,-3.52354 5.54052,-7.37354 2.84194,-3.85 5.46702,-6.93677 5.83351,-6.8595 0.36649,0.0773 2.3049,-1.27272 4.30758,-3 6.81333,-5.87638 9.35838,-7.93477 9.61456,-7.77604 0.14069,0.0872 2.93285,-1.19289 6.20481,-2.84457 12.61398,-6.36752 25.24427,-10.21431 47.71965,-14.53391 6.69914,-1.28753 13.15397,-2.86207 14.34406,-3.49899 2.96331,-1.58592 5.68923,-8.18018 7.27483,-17.59854 1.48024,-8.79253 3.25801,-10.31297 7.4701,-6.38881 4.31091,4.01623 2.05639,19.62105 -4.20082,29.07634 l -2.36816,3.57853 8.80582,5.79423 c 19.20197,12.63488 29.76268,26.11324 46.16244,58.91592 3.88684,7.77444 10.0236,19.31034 13.63724,25.63534 9.9066,17.33966 35.93304,56.15877 51.35168,76.59237 3.56952,4.73053 4.90712,8.40763 3.0584,8.40763 -1.79685,0 -19.80255,-20.3425 -37.17534,-42 -10.5594,-13.1637 -28.8414,-40.4772 -40.5405,-60.56796 -8.94269,-15.35719 -17.76469,-27.48499 -25.36024,-34.86327 l -5.07644,-4.93122 4.40512,16.93122 c 8.3736,32.18425 11.29678,40.8806 18.77973,55.86895 11.13195,22.29728 27.25707,43.23136 58.96028,76.54381 28.83867,30.3025 37.55355,41.31962 45.94114,58.07751 4.09198,8.17552 11.16289,27.75923 12.39595,34.33204 0.37465,1.99705 1.08751,3.88213 1.58413,4.18906 0.49663,0.30693 0.64406,0.97696 0.32762,1.48896 -0.31643,0.51199 -0.21127,1.4934 0.23369,2.1809 0.44496,0.6875 0.85489,1.925 0.91096,2.75 0.35377,5.20562 0.80872,4.40485 2.87188,-5.05486 1.2661,-5.80518 3.74235,-14.80518 5.50278,-20 z"
       id="path4" />
    <path
       style="fill:currentColor"
       d="m 509.01341,847.08333 c -2.90115,-14.89452 -9.8473,-36.42384 -14.97451,-46.41289 -8.62345,-16.80056 -17.08369,-27.47002 -46.24565,-58.32178 C 426.26092,719.56863 410.21496,700.47642 400.85548,686.5 393.64753,675.73643 383.15043,654.59102 379.50923,643.5 376.81371,635.28948 365,590.96371 365,589.06045 c 0,-4.63716 12.64255,6.59167 22.44996,19.93955 2.62674,3.575 9.30464,14.15 14.83977,23.5 12.37305,20.90068 23.48807,37.70168 34.07078,51.5 8.11617,10.58231 22.59066,28 23.26862,28 0.20114,0 -1.80118,-3.0375 -4.4496,-6.75 -19.77417,-27.71899 -35.46748,-53.18954 -47.83185,-77.63201 -10.68272,-21.11811 -16.66526,-31.19278 -23.82284,-40.11799 -7.09709,-8.84978 -17.92153,-18.25289 -26.68234,-23.17876 -3.73791,-2.10168 -6.8047,-4.27124 -6.81507,-4.82124 -0.0104,-0.55 1.33664,-3.025 2.99336,-5.5 3.2629,-4.87447 6.97921,-15.52124 6.97921,-19.99455 0,-1.53114 -0.86657,-3.84623 -1.92571,-5.14467 -2.2499,-2.75822 -2.29717,-2.66959 -4.01473,7.52774 -1.5082,8.95438 -4.10133,13.93703 -8.25968,15.87084 -1.81493,0.84403 -10.48215,2.9432 -19.26048,4.66484 -34.57586,6.78113 -56.66758,18.18605 -69.17293,35.71072 -5.18492,7.26602 -5.31192,7.2913 -15.86647,3.15892 -15.10733,-5.91492 -26.39646,-17.36156 -26.47804,-26.8475 -0.0448,-5.21298 5.21308,-12.88817 19.56873,-28.56527 17.75635,-19.39083 22.38184,-26.17567 28.93314,-42.44023 8.84823,-21.96703 18.93718,-34.54661 44.47617,-55.45586 20.07745,-16.4378 32.21586,-30.07324 39.37841,-44.23498 1.55826,-3.08098 3.32475,-5.25 4.2757,-5.25 1.43037,0 1.56171,1.37816 1.1198,11.75 -0.41057,9.63635 -1.06065,13.41162 -3.61388,20.98709 -3.60667,10.70107 -6.87289,17.45631 -12.33573,25.51291 -2.14435,3.1625 -3.59662,5.75 -3.22726,5.75 1.73207,0 19.77431,-9.18132 25.48947,-12.97106 C 366.99865,438.78238 378,429.93898 378,428.82539 378,428.37143 378.95751,428 380.12781,428 c 1.93774,0 2.06809,0.37347 1.45921,4.18115 -0.36772,2.29964 -2.53507,8.0016 -4.81633,12.67102 -3.27557,6.70466 -6.10571,10.52981 -13.45921,18.1911 -5.12131,5.33568 -9.31148,9.96629 -9.31148,10.29024 0,0.32396 2.2719,1.26369 5.04867,2.0883 6.38418,1.8959 15.59624,6.54893 23.95133,12.09786 18.27279,12.13565 32.84526,30.82579 43.44138,55.7164 5.40618,12.69927 7.94351,21.14982 14.959,49.82064 3.03568,12.4062 6.92239,26.5812 8.63712,31.5 4.62488,13.2667 15.63382,34.86886 26.98109,52.94329 17.61416,28.05661 26.35401,48.224 32.58673,75.19461 l 2.81809,12.19461 2.27859,-10.19461 c 5.89756,-26.38617 14.84881,-47.98092 31.04141,-74.88695 22.15185,-36.80805 27.56434,-50.31185 38.80174,-96.80766 9.66781,-40.00149 19.7312,-61.43474 37.9262,-80.77614 12.75203,-13.55548 27.97156,-23.62881 40.62501,-26.88842 l 6.79589,-1.75066 -8.73256,-9.04239 C 656.35679,459.56908 650.80019,452.8 648.81171,449.5 c -5.4206,-8.99578 -8.65097,-21.5 -5.55435,-21.5 0.69155,0 4.1093,2.48727 7.59501,5.52726 3.48571,3.04 9.06502,7.37938 12.39845,9.64307 6.2033,4.21258 26.60505,14.30714 27.36987,13.54231 0.23356,-0.23355 -2.04441,-4.35739 -5.06214,-9.16409 -9.79505,-15.60169 -14.86992,-32.19416 -14.34704,-46.90812 0.23212,-6.53213 0.60414,-8.17858 1.90401,-8.4268 1.09409,-0.20891 1.80275,0.62772 2.19563,2.59214 0.99585,4.97925 12.33349,20.6697 21.96491,30.39782 5.07317,5.1241 15.07394,14.07956 22.22394,19.90103 23.33897,19.00237 32.89204,31.12913 41.17834,52.27216 7.06358,18.02318 11.99798,24.89479 35.07849,48.85005 11.80661,12.25407 14.81926,17.55346 13.87897,24.41367 -1.15306,8.41243 -7.45462,15.40587 -19.59979,21.75173 C 784.00292,595.54452 774.2782,599 771.43982,599 c -0.65845,0 -1.73628,-1.3015 -2.39518,-2.89223 -1.58791,-3.83355 -13.48403,-15.54101 -20.19513,-19.87484 -13.84164,-8.93853 -29.71927,-14.84807 -53.21495,-19.80621 -8.726,-1.84139 -16.98059,-4.07865 -18.34354,-4.97169 -3.08432,-2.02093 -5.85277,-8.30687 -6.71381,-15.24418 -0.36107,-2.90904 -1.10283,-6.46314 -1.64837,-7.89802 -0.95383,-2.50877 -1.04701,-2.53604 -2.42856,-0.71085 -3.09893,4.09406 -0.87708,16.25863 4.52565,24.77785 1.63574,2.5793 2.97407,5.4805 2.97407,6.44712 0,1.09703 -2.34874,3.13912 -6.25,5.43401 -17.90888,10.53476 -29.39523,24.60014 -46.25,56.63451 -16.47222,31.3073 -35.81579,62.50018 -51.69046,83.35453 -3.24468,4.2625 -5.68276,7.75 -5.41796,7.75 0.76103,0 23.67787,-27.69805 29.85424,-36.08282 9.10029,-12.35417 20.91116,-30.49717 29.24052,-44.91718 4.28887,-7.425 9.16131,-15.525 10.82764,-18 7.70204,-11.43979 21.08887,-26 23.90472,-26 2.15112,0 2.1581,0.18826 0.24089,6.5 -0.83531,2.75 -2.9068,11.06582 -4.6033,18.4796 -12.01584,52.50975 -28.09827,79.08673 -80.79911,133.52437 -23.78503,24.56888 -31.48824,34.01646 -39.40364,48.32645 -8.44438,15.2663 -17.2646,42.36706 -19.12175,58.75291 -1.09621,9.67198 -2.91658,7.85768 -5.51838,-5.5 z"
       id="path3" />
  </g>
</svg>
