<?xml version="1.0" encoding="UTF-8" standalone="no"?>
<!-- Created with Inkscape (http://www.inkscape.org/) -->

<svg
   version="1.1"
   id="svg1"
   width="295.73145"
   height="432.79321"
   viewBox="0 0 295.73145 432.79321"
   sodipodi:docname="favicon.svg"
   inkscape:export-filename="black-logo.svg"
   inkscape:export-xdpi="96"
   inkscape:export-ydpi="96"
   inkscape:version="1.3 (0e150ed6c4, 2023-07-21)"
   xmlns:inkscape="http://www.inkscape.org/namespaces/inkscape"
   xmlns:sodipodi="http://sodipodi.sourceforge.net/DTD/sodipodi-0.dtd"
   xmlns="http://www.w3.org/2000/svg"
   xmlns:svg="http://www.w3.org/2000/svg">
  <defs
     id="defs1" />
  <sodipodi:namedview
     id="namedview1"
     pagecolor="#505050"
     bordercolor="#eeeeee"
     borderopacity="1"
     inkscape:showpageshadow="0"
     inkscape:pageopacity="0"
     inkscape:pagecheckerboard="0"
     inkscape:deskcolor="#505050"
     inkscape:zoom="1.2070534"
     inkscape:cx="227.41331"
     inkscape:cy="241.91142"
     inkscape:window-width="1920"
     inkscape:window-height="1112"
     inkscape:window-x="-8"
     inkscape:window-y="-8"
     inkscape:window-maximized="1"
     inkscape:current-layer="g1"
     showgrid="false" />
  <g
     inkscape:groupmode="layer"
     inkscape:label="Image"
     id="g1"
     transform="translate(-108.58562,-38)">
    <path
       style="fill:#c24900;fill-opacity:1;stroke:none"
       d="m 255,38 c -20.2325,28.722382 -61.64868,45.84082 -95,52.550934 -10.75438,2.163727 -22.04086,3.929779 -33,4.409698 -3.82359,0.16745 -11.21942,-1.449249 -14.39661,1.067139 C 109.92723,98.147339 111,104.01959 111,107 v 32 129 h 1 L 121.74152,254 122,211 V 106 c 33.18559,-0.0914 66.52829,-9.407654 96,-24.247681 9.6924,-4.880462 18.52832,-10.99823 27,-17.756164 2.78122,-2.218598 7.2249,-7.929199 11,-7.941345 4.00995,-0.01288 9.08984,6.291595 12,8.69519 8.63339,7.130646 17.99652,12.998138 28,18.003082 C 324.75531,97.139954 357.80832,105 390,105 v 116 c 0,16.52011 -4.008,34.95267 11,46 V 95 C 350.8949,95 288.94699,79.92923 257,38 h -2 m -58,70 c -6.5538,3.4411 -12.65253,7.12762 -17.33102,13.00385 -3.61049,4.53479 -6.35222,9.40148 -7.92284,14.99615 -5.21324,18.56995 4.80742,35.0744 20.25386,44.94598 9.93233,6.3476 27.1373,15.80118 28.51543,29.05402 0.44836,4.31177 -3.58657,10.33813 -8.09722,6.47223 C 209.55223,214.0159 209.15294,209.37717 208,206 h -1 l 7.48997,27 3.51543,15.96063 L 231.09877,265 236.9946,293 255,317 c 21.73166,-11.00256 17.56699,-32.55957 25.46759,-51 3.06934,-7.164 9.4895,-10.79172 13.53781,-17.03937 3.13632,-4.84021 2.06635,-9.75918 3.49381,-14.96063 2.76544,-10.07684 9.19665,-15.67142 6.50079,-27 h -1 c -0.50656,9.74387 -12.71002,14.4245 -11.36188,3 1.64777,-13.96353 19.00171,-22.89578 29.36188,-29.69598 15.19229,-9.9719 25.16742,-28.19367 18.89893,-46.30402 -1.76502,-5.09933 -4.65497,-9.92966 -8.19986,-13.98535 C 327.17859,114.84283 321.28256,110.7114 315,108 c 3.53934,6.81793 9.24985,11.83484 9.90665,20 C 326.39352,146.48453 308.4032,154.59695 295,162.60419 280.04156,171.54053 266.39053,186.66769 266,205 l -9,-15 h -1 l -8,15 h -1 C 243.81674,188.58554 236.06039,175.31775 222,165.74615 210.12265,157.66068 191.29547,151.80002 187.53241,136 184.48157,123.1904 194.4875,118.40558 197,108 m -69,98 h 1 m 46,-10 c -8.04317,17.00211 -24.79425,26.26422 -36.81482,40 -6.70138,7.65759 -8.60605,17.78287 -14.39429,26 -7.85614,11.15277 -25.743908,23.62671 -6.79089,33.67285 2.86354,1.51782 5.90321,2.4292 9,3.32715 6.54829,-8.59442 14.82243,-14.85413 25,-18.56406 14.24655,-5.19314 25.9874,-0.37439 26,-19.43594 h 1 c 2.97386,7.31152 1.92842,10.86023 -1,18 20.11958,12.6203 23.70613,33.18146 35.69522,52 8.16708,12.81937 20.76604,23.23892 27.30478,37 -12.29193,-14.20471 -24.62949,-29.0332 -34.57484,-45 -5.72615,-9.19305 -11.57027,-23.72281 -21.42516,-29 4.58154,16.29718 5.7079,33.37048 15.09027,48 10.49233,16.3602 27.27429,27.75818 39.24075,43 9.17832,11.69049 13.01874,24.28989 17.66898,38 h 1 c 2.65387,-32.49228 33.05075,-50.79974 51.33102,-74 12.89353,-16.36371 15.59092,-35.23169 19.66898,-55 -9.74298,7.01245 -15.29898,20.07422 -21.69214,30 -10.42004,16.17776 -22.7222,31.45587 -35.30786,46 l 31.30478,-43 15.91589,-32 14.96298,-15.32483 L 331.63428,270 334,261 h 1 c 0.014,21.26727 20.05756,15.34268 35,23.87268 5.28778,3.01856 11.50558,11.97711 17.08951,13.05634 5.46737,1.0567 14.27603,-5.37912 16.54938,-10.01853 C 407.72818,279.56512 392.16351,267.8074 387.92746,262 381.71109,253.47769 379.6958,243.13568 372.69986,235.00076 361.05597,221.46115 346.564,212.5705 337,197 h -1 c 0.0325,11.80435 5.11844,23.52612 12,33 l -27,-14 c 2.2269,7.71533 7.58188,16.51184 15,20 v 1 c -41.25577,9.77652 -39.11151,55.91687 -54.25925,87 C 272.5036,342.95465 257.45514,360.95312 257,383 h -1 C 249.78549,357.77411 236.06418,338.7262 226.45293,315 213.91724,284.05457 214.20198,249.12546 177,237 c 6.02176,-6.07269 11.58771,-12.64236 14,-21 l -27,14 c 5.4239,-8.22437 15.24805,-23.87253 11,-34 m 72,65 h -1 L 241.57022,249.10495 225,234 c 17.08975,-7.29993 19.66966,17.21194 22,27 m 40,-28 c -3.8855,13.48099 -19.30508,12.85889 -20,29 -5.36224,-12.77893 5.51657,-30.72647 20,-29 m -138,15 c -2.0226,5.64099 -8.7099,9.58032 -14,12 v -7 l 14,-5 m 215,0 12,5 v 6 c -4.16989,-1.93802 -12.7287,-5.71103 -12,-11 m -187,12 -1,1 1,-1 m 159,0 -1,1 1,-1 m -89.33333,2.66669 -0.33334,0.66662 0.33334,-0.66662 M 121,279 l -8,6 8,-6 m 271,0 6,5 -6,-5 m -146,7 5,11 h -1 l -4,-11 m 21,1 -4,8 c -1.46823,-3.92609 0.50955,-6.23975 4,-8 m 133,12 c -2.65372,1.87335 -6.98737,3.18353 -9.0116,5.69907 -4.88263,6.06765 -3.24276,21.59603 -5.41665,29.30093 -3.73435,13.23553 -10.80365,24.7262 -19.85804,34.99924 C 354.05585,382.22614 338.32129,391.71286 324,401.71991 299.90564,418.55591 275.90192,435.1557 255,456 248.02141,442.21628 228.17146,430.75436 216,421.62653 172.98196,389.36578 123,364.95276 123,304 l -12,-4 c 2.25619,17.85236 2.69682,35.23816 10.3125,52 17.3206,38.12201 59.35641,56.69012 90.6875,81.20987 11.05037,8.64804 21.5808,17.66824 31.98534,27.07562 3.06468,2.77097 7.41623,10.50772 11.97607,10.50772 3.94814,0 8.49706,-7.25015 11.03935,-9.79245 C 276.32031,451.68121 286.49512,443.08325 297,435.12964 334.8992,406.43475 385.89435,383.74472 397.20679,333 399.23297,323.91101 403.69278,307.80359 400,299 m -159,69 2,4 -2,-4 m 29.66666,2.66669 -0.33332,0.66662 0.33332,-0.66662"
       id="path2"
       sodipodi:nodetypes="cssssccccccssssscscccccssssscccccccsssccsssscsscccccssccccssscscccscscssccscscccccccsssssccccccsccscccccccccccccccccccccccccccccccccccccccccccsssscsccsssssssccccccc"
       inkscape:export-filename="black-favicon-ico.png"
       inkscape:export-xdpi="96"
       inkscape:export-ydpi="96" />
  </g>
</svg>
